<svg width="300" height="241" viewBox="0 0 300 241" fill="none" xmlns="http://www.w3.org/2000/svg">
<path d="M147.901 123.919C147.62 123.465 147.172 123.24 146.71 123.036C142.993 121.392 139.283 119.729 135.557 118.104C130.3 115.804 125.01 113.554 119.781 111.215C118.78 110.769 118.733 111.14 118.799 111.92C118.944 113.712 119.141 115.504 119.214 117.298C119.582 126.281 120.132 135.253 120.596 144.227C121.065 153.285 121.571 162.339 122.003 171.398C122.347 178.739 122.839 186.072 123.085 193.416C123.085 193.754 123.271 194.188 122.942 194.4C122.614 194.611 122.293 194.346 121.979 194.165C119.578 192.834 117.169 191.511 114.753 190.196C103.816 184.246 92.8784 178.306 81.9409 172.375C81.1253 171.933 80.6026 171.417 80.5065 170.458C80.3753 169.178 80.169 167.905 79.9909 166.63C79.4706 162.917 78.9573 159.204 78.423 155.491C77.6964 150.427 76.9604 145.364 76.2151 140.302C75.4933 135.356 74.7722 130.41 74.0519 125.464C73.5339 121.911 73.0065 118.36 72.4956 114.804C71.9355 110.9 71.3706 106.999 70.855 103.089C70.2855 98.8333 69.4347 94.6129 69.1276 90.3197C69.0737 89.5423 68.8581 88.9927 68.005 88.6216C59.6472 84.9977 51.3128 81.3151 42.9761 77.6373C41.9448 77.184 41.9355 77.7429 42.062 78.4851C42.7464 82.484 43.4323 86.4828 44.1198 90.4817C44.6425 93.5184 45.1792 96.5528 45.6831 99.5942C46.2245 102.866 46.7167 106.147 47.2675 109.418C47.9706 113.608 48.7253 117.791 49.4331 121.983C50.1503 126.211 50.8394 130.452 51.5425 134.685C52.0886 137.956 52.6604 141.223 53.2019 144.495C53.8862 148.614 54.5354 152.738 55.2245 156.855C55.7776 160.167 56.3847 163.469 56.9425 166.78C57.6128 170.745 58.2503 174.714 58.9183 178.678C59.0472 179.449 59.5019 179.977 60.1933 180.388C63.9292 182.613 67.6526 184.857 71.3636 187.119C80.0058 192.371 88.6433 197.627 97.2761 202.888C107.773 209.271 118.273 215.653 128.776 222.033C134.789 225.699 140.822 229.348 146.877 232.98C147.964 234.14 148.892 233.215 149.76 232.682C178.216 215.426 206.668 198.165 235.117 180.9C235.555 180.655 235.929 180.309 236.207 179.89C236.485 179.472 236.66 178.993 236.717 178.493C237.392 174.362 238.103 170.238 238.794 166.111C239.12 164.166 239.429 162.217 239.753 160.24C239.078 160.2 238.705 160.533 238.307 160.745C227 166.677 215.701 172.621 204.268 178.31C194.098 183.369 183.936 188.444 173.783 193.536C173.514 193.672 173.228 193.947 172.928 193.77C172.628 193.594 172.787 193.209 172.799 192.913C172.921 190.021 173.045 187.13 173.171 184.24C173.42 178.26 173.666 172.281 173.91 166.301C174.287 157.471 174.716 148.642 175.037 139.809C175.215 134.917 175.103 134.84 179.509 132.799C201.66 122.553 223.829 112.341 246.015 102.164C248.249 101.144 249.325 99.9982 249.564 97.4664C250.133 91.4799 251.073 85.5262 251.879 79.5631C251.996 78.6871 251.832 78.3888 250.916 78.8256C248.968 79.7299 246.99 80.5659 245.021 81.4232C220.676 92.031 196.335 102.641 171.997 113.254C163.949 116.774 155.814 120.093 147.901 123.919ZM268.435 55.4431C268.707 55.4196 268.979 55.389 269.251 55.3726C270.805 55.281 270.857 55.2974 270.746 56.8686C270.61 58.7687 270.625 60.6687 270.388 62.5781C270.046 65.3565 269.994 68.1842 269.875 70.986C269.713 74.7673 269.113 78.5203 269.235 82.3156C269.237 82.4334 269.225 82.551 269.197 82.6656C268.555 85.7375 268.714 88.8847 268.494 91.9872C268.227 95.759 267.746 99.5308 267.817 103.329C267.817 103.631 267.674 103.932 267.634 104.24C267.414 106.085 267.353 107.946 267.451 109.801C268.257 109.545 269.048 109.241 269.818 108.892C273.334 107.227 276.817 105.456 280.295 103.702C280.477 103.631 280.633 103.506 280.743 103.344C280.853 103.183 280.912 102.991 280.911 102.795C280.895 101.281 280.911 99.7633 280.935 98.2485C281.075 87.4661 280.89 76.6814 281.364 65.899C281.598 60.5137 281.42 55.1095 281.429 49.7125C283.789 48.7002 286.157 47.6974 288.51 46.6593C288.913 46.4832 289.525 46.3587 289.447 45.7622C289.37 45.1656 288.744 45.2478 288.313 45.1374C272.21 41.0008 256.105 36.868 239.999 32.7392C210.253 25.1016 180.51 17.4514 150.767 9.78876C148.813 9.2571 146.751 9.26602 144.8 9.81459C100.982 21.3352 57.1495 32.8042 13.3042 44.2215C12.0972 44.5385 10.8972 44.8791 9.70186 45.229C9.41827 45.3136 9.0503 45.3746 9.06905 45.7997C9.08311 46.1379 9.38545 46.2107 9.6292 46.3235C10.4448 46.6945 11.2628 47.0633 12.0831 47.4296L88.2128 81.4843C107.494 90.1114 126.772 98.7464 146.047 107.389C147.378 107.988 148.466 108.04 149.797 107.389C152.392 106.123 155.073 105.041 157.721 103.866C194.623 87.7268 231.528 71.5857 268.435 55.4431Z" fill="#FEFEFE"/>
<path d="M268.438 55.443C231.528 71.5872 194.62 87.7315 157.712 103.876C155.064 105.034 152.382 106.123 149.788 107.399C148.466 108.044 147.378 107.993 146.038 107.399C126.775 98.7323 107.497 90.0973 88.2034 81.4936L12.0831 47.4414C11.2628 47.075 10.4448 46.7063 9.6292 46.3352C9.39483 46.2224 9.08311 46.1496 9.06905 45.8114C9.0503 45.3863 9.41827 45.3253 9.70186 45.2407C10.8972 44.8908 12.0972 44.5503 13.3042 44.2332C57.1401 32.7799 100.972 21.3109 144.8 9.82631C146.751 9.27774 148.813 9.26882 150.767 9.80048C180.503 17.4851 210.247 25.1313 239.999 32.7392C256.1 36.8727 272.203 41.007 288.306 45.1421C288.728 45.2525 289.358 45.1797 289.44 45.7668C289.522 46.354 288.91 46.4878 288.503 46.664C286.159 47.6974 283.782 48.7002 281.422 49.7172C279.952 49.4042 278.449 49.2764 276.948 49.3367C274 49.1511 271.051 48.9914 268.096 49.0032C267.142 48.7683 266.169 48.9045 265.206 48.8552L256.3 48.5053L253.721 48.3832L244.759 48.0356L242.235 47.9205L233.246 47.5799C232.363 47.3733 231.463 47.4836 230.567 47.4508L221.542 47.0961L218.905 46.9716L209.921 46.6147L207.395 46.5019L198.571 46.1684C197.696 45.95 196.808 46.0745 195.925 46.0393L186.395 45.6353L184.426 45.5695L175.18 45.1961L172.712 45.0928C169.794 44.9237 166.878 44.7287 163.953 44.7828C163.042 44.5244 162.109 44.67 161.185 44.6231L152.324 44.2849C151.705 44.2426 151.082 44.2355 150.47 44.1486C149.729 44.043 149.427 44.3083 149.417 45.0646C149.403 46.4738 149.326 47.8641 149.275 49.2662C150.514 49.9027 151.839 49.5293 153.128 49.588C154.049 49.8933 155.003 49.75 155.94 49.7923L163.726 50.1728L165.711 50.2644L173.321 50.6237L175.571 50.7364C177.988 50.8821 180.4 51.1005 182.837 51.0394C183.625 51.2931 184.44 51.1592 185.244 51.2015L193.307 51.6007L195.06 51.6712L202.871 52.0493L204.885 52.1433L212.455 52.4814C213.139 52.6858 213.84 52.5824 214.534 52.6059L222.268 52.9582C222.971 53.1531 223.674 53.0451 224.392 53.0803L232.171 53.4538L234.207 53.5477L242.521 53.9611L244.018 54.0174L251.867 54.4049L253.897 54.4965C256.332 54.6609 258.765 54.8488 261.21 54.7948C262.353 55.0602 263.525 54.9287 264.678 55.0297C265.932 55.1236 267.219 54.9874 268.438 55.443Z" fill="#20201F"/>
<path d="M146.878 232.981C140.834 229.336 134.79 225.69 128.747 222.043C118.239 215.671 107.739 209.289 97.2467 202.897C88.6077 197.641 79.9702 192.385 71.3342 187.129C67.6186 184.873 63.8952 182.629 60.1639 180.398C59.4725 179.987 59.0178 179.458 58.8889 178.688C58.2209 174.724 57.5834 170.755 56.9131 166.79C56.3553 163.479 55.7413 160.177 55.1952 156.865C54.5061 152.748 53.8569 148.624 53.1725 144.504C52.6311 141.233 52.0592 137.966 51.5131 134.694C50.81 130.467 50.1256 126.223 49.4038 121.993C48.7006 117.801 47.9436 113.618 47.2381 109.428C46.6874 106.157 46.1952 102.876 45.6538 99.604C45.1498 96.5508 44.6131 93.5282 44.0905 90.4915C43.4045 86.491 42.7186 82.4922 42.0327 78.4948C41.9061 77.7527 41.9155 77.1937 42.9467 77.647C51.2834 81.3249 59.6178 85.0075 67.9756 88.6314C68.8288 89.0025 69.0444 89.552 69.0983 90.3294C69.4053 94.6226 70.2561 98.8431 70.8256 103.099C71.3506 107.009 71.9155 110.91 72.4663 114.813C72.9772 118.369 73.5045 121.92 74.0225 125.474C74.7444 130.42 75.4655 135.366 76.1858 140.312C76.9217 145.374 77.6577 150.437 78.3936 155.5C78.928 159.214 79.4413 162.927 79.9616 166.64C80.1397 167.915 80.3459 169.188 80.4772 170.468C80.5733 171.426 81.0959 171.943 81.9116 172.385C92.8616 178.308 103.803 184.248 114.736 190.206C117.15 191.519 119.558 192.842 121.962 194.175C122.276 194.351 122.613 194.607 122.925 194.41C123.237 194.212 123.077 193.764 123.068 193.426C122.833 186.082 122.33 178.749 121.985 171.408C121.558 162.349 121.047 153.295 120.579 144.237C120.11 135.263 119.564 126.291 119.196 117.308C119.123 115.513 118.926 113.721 118.781 111.929C118.715 111.14 118.762 110.769 119.763 111.225C125.004 113.573 130.282 115.814 135.539 118.113C139.265 119.743 142.976 121.401 146.693 123.045C147.162 123.25 147.602 123.475 147.881 123.928C147.808 125.136 147.682 126.34 147.668 127.548C147.581 135.718 147.668 143.887 147.45 152.057C147.201 161.673 147.504 171.292 147.23 180.912C146.995 189.391 147.03 197.878 146.976 206.362C146.937 215.228 146.915 224.101 146.878 232.981Z" fill="#0186FE"/>
<path d="M146.878 232.981C146.915 224.105 146.937 215.232 146.995 206.357C147.049 197.874 146.995 189.386 147.248 180.908C147.522 171.278 147.22 161.668 147.469 152.053C147.677 143.882 147.6 135.714 147.687 127.543C147.701 126.336 147.827 125.131 147.9 123.924C155.815 120.098 163.95 116.779 171.998 113.259C196.326 102.621 220.668 92.0118 245.022 81.4306C246.991 80.5734 248.969 79.7373 250.917 78.8331C251.833 78.4056 251.997 78.6945 251.88 79.5705C251.074 85.5336 250.134 91.4873 249.565 97.4738C249.33 100.01 248.25 101.156 246.016 102.171C223.813 112.308 201.646 122.521 179.515 132.811C175.108 134.852 175.221 134.925 175.043 139.821C174.722 148.654 174.293 157.483 173.915 166.313C173.662 172.293 173.416 178.273 173.177 184.252C173.055 187.144 172.931 190.035 172.804 192.925C172.804 193.221 172.608 193.597 172.933 193.783C173.259 193.968 173.519 193.679 173.789 193.548C183.945 188.472 194.107 183.396 204.274 178.322C215.707 172.634 227.008 166.689 238.312 160.757C238.711 160.545 239.083 160.212 239.758 160.252C239.435 162.225 239.126 164.174 238.8 166.123C238.097 170.25 237.394 174.374 236.723 178.505C236.665 179.005 236.489 179.484 236.21 179.902C235.931 180.32 235.557 180.666 235.118 180.91C206.654 198.15 178.203 215.406 149.765 232.678C148.894 233.216 147.965 234.136 146.878 232.981Z" fill="#01399A"/>
<path d="M172.714 45.0931L175.182 45.1941C175.271 45.84 175.777 45.5417 176.087 45.5464C178.866 45.5723 181.648 45.5652 184.428 45.5676L186.394 45.6333C186.493 46.2721 187.004 45.9973 187.332 46.002C190.201 46.0326 193.069 46.0302 195.938 46.0373C196.822 46.0725 197.71 45.948 198.584 46.1641L197.839 46.3872C197.853 46.4248 197.867 46.4624 197.883 46.4999H207.408L209.923 46.6103C209.923 47.2562 210.444 46.9438 210.692 46.9462C213.43 46.9767 216.169 46.965 218.909 46.9673L221.576 47.0871C220.833 47.5075 221.412 47.4253 221.708 47.4253C224.676 47.4347 227.645 47.4402 230.614 47.4417C231.509 47.4746 232.409 47.3642 233.293 47.5709C232.533 48.0406 233.234 47.895 233.438 47.895C236.384 47.9068 239.333 47.9068 242.281 47.9114L244.805 48.0265C244.772 48.0494 244.743 48.0762 244.716 48.1064C244.695 48.1346 244.658 48.1839 244.669 48.205C244.822 48.555 245.138 48.3694 245.373 48.3694C248.185 48.3835 250.976 48.3694 253.78 48.3694L256.346 48.4916C256.456 49.0904 256.937 48.818 257.239 48.8204C259.911 48.8462 262.58 48.8391 265.25 48.8415C266.213 48.8908 267.186 48.7616 268.137 48.9895C268.664 49.1699 269.211 49.2812 269.766 49.3206C272.162 49.3018 274.555 49.3206 276.95 49.3206C278.451 49.2603 279.954 49.3881 281.424 49.7011C281.424 55.1028 281.595 60.5046 281.358 65.8876C280.89 76.6699 281.07 87.4547 280.93 98.2371C280.908 99.7519 280.89 101.269 280.906 102.784C280.907 102.98 280.848 103.171 280.738 103.333C280.628 103.495 280.472 103.619 280.29 103.69C276.812 105.445 273.336 107.213 269.813 108.881C269.042 109.23 268.252 109.533 267.446 109.79C267.348 107.934 267.409 106.073 267.629 104.228C267.669 103.921 267.819 103.62 267.812 103.317C267.741 99.5194 268.222 95.7475 268.489 91.9757C268.707 88.8732 268.548 85.7261 269.192 82.6542C269.22 82.5396 269.232 82.422 269.23 82.3042C269.108 78.5089 269.698 74.7558 269.869 70.9746C269.989 68.1727 270.04 65.338 270.383 62.5667C270.617 60.6572 270.605 58.7572 270.741 56.8572C270.851 55.286 270.8 55.2696 269.246 55.3612C268.974 55.3776 268.702 55.4082 268.43 55.4316C267.214 54.976 265.927 55.1122 264.68 55.0136C263.527 54.922 262.355 55.0535 261.214 54.7905C261.097 54.2292 260.649 54.5133 260.375 54.5086C258.216 54.4805 256.058 54.4922 253.899 54.4899L251.872 54.3983C251.771 53.7618 251.265 54.0483 250.953 54.0436C248.642 54.0084 246.331 54.0154 244.02 54.0107L242.525 53.9544C242.419 53.325 241.915 53.5786 241.587 53.5763C239.129 53.5457 236.665 53.5481 234.209 53.541L232.172 53.4471C232.271 53.3837 232.447 53.3226 232.451 53.2545C232.468 52.9163 232.191 53.0995 232.069 53.0995C229.51 53.0807 226.951 53.0783 224.394 53.0737C223.69 53.0384 222.969 53.1465 222.284 52.9515C222.16 52.3644 221.689 52.6321 221.382 52.6298C219.104 52.5992 216.826 52.6039 214.545 52.5992C213.842 52.5758 213.139 52.6791 212.469 52.4771C212.347 51.8477 211.85 52.1647 211.531 52.16C209.316 52.1272 207.101 52.1389 204.884 52.1366L202.873 52.0426C203.19 51.3568 202.571 51.695 202.43 51.695C199.974 51.6668 197.508 51.6692 195.059 51.6645L193.306 51.594C193.894 51.1713 193.458 51.2253 193.137 51.2253L185.239 51.1995C184.435 51.1572 183.619 51.2911 182.834 51.0374C182.534 50.7321 182.152 50.7227 181.756 50.7251C179.696 50.7251 177.638 50.7251 175.578 50.7251L173.33 50.6123C173.377 50.5513 173.457 50.4972 173.464 50.4338C173.48 50.2859 173.365 50.2647 173.248 50.2647L165.718 50.26L163.735 50.1684C163.634 49.5273 163.128 49.8209 162.816 49.8162C160.526 49.7833 158.237 49.7927 155.947 49.788C155.009 49.7457 154.051 49.889 153.134 49.5836L154.17 49.4686V49.2619H149.276C149.328 47.8527 149.405 46.46 149.419 45.0603C149.419 44.304 149.731 44.0386 150.472 44.1443C151.083 44.2312 151.707 44.2383 152.323 44.2805C152.633 44.6727 153.071 44.614 153.495 44.614H161.187C162.111 44.661 163.044 44.5154 163.955 44.7737C164.051 45.3585 164.515 45.0579 164.783 45.0603C167.426 45.1049 170.07 45.0931 172.714 45.0931Z" fill="#FDEC28"/>
<path d="M195.936 46.0329C193.068 46.0329 190.199 46.0329 187.33 45.9976C187.014 45.9976 186.503 46.2677 186.393 45.6289L195.936 46.0329Z" fill="#E6D974"/>
<path d="M184.428 45.5629C181.648 45.5629 178.866 45.5629 176.086 45.5417C175.777 45.5417 175.271 45.8353 175.182 45.1895L184.428 45.5629Z" fill="#E6D974"/>
<path d="M230.592 47.4416C227.624 47.4416 224.655 47.4361 221.686 47.4251C221.391 47.4251 220.812 47.5073 221.555 47.0869L230.592 47.4416Z" fill="#E6D974"/>
<path d="M242.257 47.9113C239.309 47.9113 236.36 47.9113 233.414 47.8949C233.21 47.8949 232.51 48.0382 233.269 47.5708L242.257 47.9113Z" fill="#E6D974"/>
<path d="M218.907 46.9717C216.167 46.9717 213.428 46.9717 210.69 46.9506C210.442 46.9506 209.933 47.2606 209.921 46.6147L218.907 46.9717Z" fill="#E6D974"/>
<path d="M253.744 48.381C250.931 48.381 248.138 48.381 245.337 48.381C245.103 48.381 244.798 48.5665 244.634 48.2166C244.634 48.1955 244.66 48.1461 244.681 48.1179C244.707 48.0878 244.737 48.061 244.77 48.0381L253.744 48.381Z" fill="#E6D974"/>
<path d="M265.215 48.8504C262.546 48.8504 259.876 48.8504 257.205 48.8293C256.902 48.8293 256.422 49.0994 256.312 48.5005L265.215 48.8504Z" fill="#E6D974"/>
<path d="M172.711 45.0927C170.067 45.0927 167.424 45.0927 164.78 45.0692C164.513 45.0692 164.049 45.3675 163.953 44.7827C166.873 44.7334 169.793 44.9283 172.711 45.0927Z" fill="#E6D974"/>
<path d="M161.185 44.6231H153.493C153.068 44.6231 152.63 44.6818 152.321 44.2896L161.185 44.6231Z" fill="#E6D974"/>
<path d="M185.239 51.1992L193.133 51.2298C193.454 51.2298 193.89 51.1757 193.301 51.5985L185.239 51.1992Z" fill="#E6D974"/>
<path d="M207.397 46.5019H197.872C197.855 46.4643 197.841 46.4267 197.827 46.3891L198.572 46.166L207.397 46.5019Z" fill="#E6D974"/>
<path d="M234.201 53.548C236.66 53.548 239.123 53.548 241.579 53.5832C241.907 53.5832 242.411 53.3319 242.517 53.9613L234.201 53.548Z" fill="#E6D974"/>
<path d="M276.958 49.3319C274.562 49.3319 272.169 49.3037 269.774 49.3319C269.205 49.2984 268.643 49.1894 268.103 49.0077C271.061 48.9866 274.009 49.1463 276.958 49.3319Z" fill="#E6D974"/>
<path d="M224.387 53.0784C226.944 53.0784 229.503 53.0784 232.062 53.1042C232.184 53.1042 232.461 52.921 232.445 53.2592C232.445 53.3273 232.264 53.3884 232.166 53.4518L224.387 53.0784Z" fill="#E6D974"/>
<path d="M195.053 51.6691C197.512 51.6691 199.975 51.6691 202.424 51.6996C202.565 51.6996 203.184 51.3614 202.867 52.0472L195.053 51.6691Z" fill="#E6D974"/>
<path d="M244.016 54.0176C246.327 54.0176 248.637 54.0176 250.948 54.0504C251.26 54.0504 251.766 53.7686 251.867 54.4051L244.016 54.0176Z" fill="#E6D974"/>
<path d="M155.946 49.7901C158.236 49.7901 160.526 49.7901 162.816 49.8183C163.128 49.8183 163.634 49.5294 163.735 50.1706L155.946 49.7901Z" fill="#E6D974"/>
<path d="M165.715 50.2603L173.246 50.272C173.363 50.272 173.48 50.2931 173.461 50.4411C173.461 50.5045 173.375 50.5585 173.328 50.6196L165.715 50.2603Z" fill="#E6D974"/>
<path d="M214.531 52.6084C216.811 52.6084 219.089 52.6084 221.367 52.6389C221.674 52.6389 222.146 52.3735 222.27 52.9607L214.531 52.6084Z" fill="#E6D974"/>
<path d="M204.881 52.139C207.099 52.139 209.313 52.139 211.528 52.1625C211.835 52.1625 212.332 51.8501 212.466 52.4795L204.881 52.139Z" fill="#E6D974"/>
<path d="M253.894 54.5015C256.053 54.5015 258.211 54.5015 260.37 54.5203C260.644 54.5203 261.092 54.2408 261.209 54.8021C258.762 54.8538 256.329 54.6659 253.894 54.5015Z" fill="#E6D974"/>
<path d="M175.576 50.7412C177.636 50.7412 179.694 50.7412 181.754 50.7412C182.15 50.7412 182.532 50.7412 182.832 51.0536C180.404 51.1053 177.992 50.8868 175.576 50.7412Z" fill="#E6D974"/>
<path d="M149.276 49.2715H154.154V49.4782L153.118 49.5932C151.841 49.5345 150.516 49.908 149.276 49.2715Z" fill="#E6D974"/>
</svg>
