<?xml version="1.0" standalone="no"?>
<!DOCTYPE svg PUBLIC "-//W3C//DTD SVG 20010904//EN"
 "http://www.w3.org/TR/2001/REC-SVG-20010904/DTD/svg10.dtd">
<svg version="1.0" xmlns="http://www.w3.org/2000/svg"
 width="1822.000000pt" height="1600.000000pt" viewBox="0 0 1822.000000 1600.000000"
 preserveAspectRatio="xMidYMid meet">
<metadata>
Created by potrace 1.16, written by Peter Selinger 2001-2019
</metadata>
<g transform="translate(0.000000,1600.000000) scale(0.100000,-0.100000)"
fill="#003895" stroke="none">
<path d="M8545 12364 c-16 -8 -185 -54 -375 -103 -384 -100 -854 -222 -1520
-396 -245 -64 -564 -147 -710 -185 -146 -38 -404 -105 -575 -150 -170 -44
-438 -114 -595 -155 -588 -154 -1145 -299 -1455 -380 -176 -46 -376 -98 -445
-115 -164 -41 -191 -51 -188 -69 3 -14 216 -111 2103 -953 297 -132 668 -298
825 -368 157 -70 661 -295 1120 -500 459 -205 1065 -476 1347 -601 282 -126
518 -229 524 -229 10 0 513 218 1214 525 105 46 424 186 710 310 496 217 842
368 1815 793 239 104 649 283 910 397 261 114 479 210 483 215 11 10 -39 13
-1033 60 -459 22 -1540 74 -2403 115 -862 41 -1584 75 -1603 75 l-36 0 4 109
c2 60 6 112 9 115 7 8 5495 -211 5572 -222 52 -7 64 -5 130 23 40 18 116 51
170 75 89 39 113 59 88 75 -6 3 -139 39 -298 79 -158 40 -468 120 -688 176
-220 56 -528 135 -685 175 -681 174 -1600 410 -1780 456 -107 28 -368 95 -580
149 -212 54 -560 144 -775 199 -214 55 -577 147 -805 206 -228 58 -422 107
-430 110 -8 2 -28 -3 -45 -11z"/>
<path d="M4094 9433 c3 -10 52 -299 110 -643 58 -344 148 -879 200 -1190 52
-311 152 -902 221 -1315 69 -412 142 -842 160 -954 19 -112 40 -210 46 -217 6
-7 88 -60 182 -117 95 -58 312 -189 482 -292 171 -104 468 -284 660 -400 510
-308 547 -331 688 -417 70 -43 141 -86 157 -96 34 -19 460 -277 880 -532 157
-95 370 -225 475 -288 104 -62 196 -123 204 -134 10 -15 21 -19 45 -15 18 3
232 126 476 274 245 148 830 503 1300 788 470 285 1108 671 1418 859 310 188
568 349 573 358 11 21 148 826 141 832 -2 3 -50 -19 -106 -49 -621 -330 -2731
-1393 -2743 -1382 -4 5 96 2435 103 2482 4 27 15 37 102 82 53 28 270 131 482
228 736 339 1367 629 1740 800 811 372 820 377 825 399 5 25 25 170 60 441 29
226 52 394 60 443 4 19 2 32 -5 32 -9 0 -652 -278 -1540 -665 -363 -158 -1153
-502 -2040 -887 -355 -154 -692 -302 -749 -329 l-104 -49 -41 24 c-43 25 -114
57 -561 251 -148 64 -346 150 -439 191 -93 41 -174 74 -179 74 -6 0 -7 -23 -3
-57 3 -32 19 -321 36 -643 17 -322 37 -711 45 -865 8 -154 33 -629 55 -1055
21 -426 42 -810 45 -853 6 -90 -3 -102 -57 -69 -18 10 -62 35 -98 54 -170 92
-207 112 -235 128 -16 9 -70 39 -120 65 -77 41 -262 141 -475 258 -30 16 -190
103 -355 192 -165 89 -339 183 -387 209 -47 26 -91 53 -98 61 -10 12 -34 172
-210 1390 -38 264 -83 575 -100 690 -70 479 -197 1372 -199 1400 0 16 -4 32
-9 36 -4 4 -153 71 -332 148 -179 78 -334 146 -345 151 -11 5 -93 41 -183 80
-90 39 -175 76 -190 84 -15 7 -38 17 -50 21 -20 6 -23 4 -18 -12z"/>
</g>
</svg>
