<svg id="Layer_1" data-name="Layer 1" xmlns="http://www.w3.org/2000/svg" viewBox="0 0 1280 1024"><defs><style>.cls-1{fill:#fefefe;}.cls-2{fill:#20201f;}.cls-3{fill:#0186fe;}.cls-4{fill:#01399a;}.cls-5{fill:#fdec28;}.cls-6{fill:#e6d974;}</style></defs><title>Untitled-1</title><path class="cls-1" d="M631.05,527.63c-1.2-1.93-3.11-2.89-5.08-3.76-15.86-7-31.69-14.08-47.59-21-22.43-9.79-45-19.37-67.31-29.33-4.27-1.9-4.47-.32-4.19,3,.62,7.63,1.46,15.26,1.77,22.9,1.57,38.25,3.92,76.45,5.9,114.66,2,38.57,4.16,77.12,6,115.69,1.47,31.26,3.57,62.48,4.62,93.75,0,1.44.79,3.29-.61,4.19s-2.77-.23-4.11-1q-15.37-8.5-30.83-16.9-70-38-140-75.88c-3.48-1.88-5.71-4.08-6.12-8.16-.56-5.45-1.44-10.87-2.2-16.3-2.22-15.81-4.41-31.62-6.69-47.43q-4.65-32.34-9.42-64.67-4.62-31.59-9.23-63.18c-2.21-15.13-4.46-30.25-6.64-45.39-2.39-16.62-4.8-33.23-7-49.88-2.43-18.12-6.06-36.09-7.37-54.37-.23-3.31-1.15-5.65-4.79-7.23-35.66-15.43-71.22-31.11-106.79-46.77-4.4-1.93-4.44.45-3.9,3.61q4.38,25.54,8.78,51.08c2.23,12.93,4.52,25.85,6.67,38.8,2.31,13.93,4.41,27.9,6.76,41.83,3,17.84,6.22,35.65,9.24,53.5,3.06,18,6,36.06,9,54.08,2.33,13.93,4.77,27.84,7.08,41.77,2.92,17.54,5.69,35.1,8.63,52.63,2.36,14.1,4.95,28.16,7.33,42.26,2.86,16.88,5.58,33.78,8.43,50.66.55,3.28,2.49,5.53,5.44,7.28q23.91,14.21,47.66,28.66,55.31,33.54,110.56,67.14,67.18,40.77,134.4,81.52Q587.93,968.8,626.68,992c4.64,4.94,8.6,1,12.3-1.27Q821.1,880.52,1003.17,770.25A13.5,13.5,0,0,0,1010,760c2.88-17.59,5.91-35.15,8.86-52.72,1.39-8.28,2.71-16.58,4.09-25-2.88-.17-4.47,1.25-6.17,2.15-48.24,25.26-96.45,50.57-145.23,74.79q-65.09,32.31-130.07,64.83c-1.15.58-2.37,1.75-3.65,1s-.6-2.39-.55-3.65q.78-18.47,1.59-36.93,1.59-38.19,3.15-76.38c1.61-37.6,3.44-75.19,4.81-112.8.76-20.83.28-21.16,19.08-29.85Q907.68,500,1049.67,435c9.53-4.34,14.12-9.22,15.14-20,2.43-25.49,6.44-50.84,9.88-76.23.5-3.73-.2-5-4.11-3.14-8.31,3.85-16.75,7.41-25.15,11.06Q889.62,414.44,733.86,482.22C699.52,497.21,664.81,511.34,631.05,527.63Zm514.28-291.56c1.16-.1,2.32-.23,3.48-.3,6.63-.39,6.85-.32,6.38,6.37-.58,8.09-.52,16.18-1.53,24.31-1.46,11.83-1.68,23.87-2.19,35.8-.69,16.1-3.25,32.08-2.73,48.24a5.82,5.82,0,0,1-.16,1.49c-2.74,13.08-2.06,26.48-3,39.69-1.14,16.06-3.19,32.12-2.89,48.29,0,1.29-.61,2.57-.78,3.88a138.19,138.19,0,0,0-.78,23.68,92.72,92.72,0,0,0,10.1-3.87c15-7.09,29.86-14.63,44.7-22.1a4.13,4.13,0,0,0,2.63-3.86c-.07-6.45,0-12.91.1-19.36.6-45.91-.19-91.83,1.83-137.74,1-22.93.24-45.94.28-68.92,10.07-4.31,20.17-8.58,30.21-13,1.72-.75,4.33-1.28,4-3.82s-3-2.19-4.84-2.66Q1127.08,165.77,1024,139.4,833.63,90.62,643.28,41.68a47.84,47.84,0,0,0-25.46.11Q337.38,115.37,56.77,188.29c-5.15,1.35-10.27,2.8-15.37,4.29-1.21.36-2.78.62-2.7,2.43.06,1.44,1.35,1.75,2.39,2.23q5.22,2.37,10.47,4.71l324.82,145q123.4,55.1,246.76,110.3c5.68,2.55,10.32,2.77,16,0,11.07-5.39,22.51-10,33.81-15Q909.12,339.17,1145.33,236.07Z"/><path class="cls-2" d="M1145.34,236.07Q909.12,339.18,672.91,442.29c-11.3,4.93-22.74,9.57-33.81,15-5.64,2.75-10.28,2.53-16,0q-123.28-55.35-246.76-110.3L51.56,202q-5.25-2.34-10.47-4.71c-1-.48-2.33-.79-2.39-2.23-.08-1.81,1.49-2.07,2.7-2.43,5.1-1.49,10.22-2.94,15.37-4.29q280.55-73.15,561.05-146.5a47.84,47.84,0,0,1,25.46-.11Q833.59,90.81,1024,139.4q103.05,26.4,206.11,52.81c1.8.47,4.49.16,4.84,2.66s-2.26,3.07-4,3.82c-10,4.4-20.14,8.67-30.21,13a77,77,0,0,0-19.09-1.62c-12.58-.79-25.16-1.47-37.77-1.42-4.07-1-8.22-.42-12.33-.63l-38-1.49-11-.52-38.24-1.48-10.77-.49-38.35-1.45c-3.77-.88-7.61-.41-11.43-.55l-38.51-1.51L934,200l-38.33-1.52L884.89,198l-37.65-1.42c-3.73-.93-7.52-.4-11.29-.55l-40.66-1.72-8.4-.28-39.45-1.59L736.91,192c-12.45-.72-24.89-1.55-37.37-1.32-3.89-1.1-7.87-.48-11.81-.68l-37.81-1.44c-2.64-.18-5.3-.21-7.91-.58-3.16-.45-4.45.68-4.49,3.9-.06,6-.39,11.92-.61,17.89,5.29,2.71,10.94,1.12,16.44,1.37,3.93,1.3,8,.69,12,.87l33.22,1.62,8.47.39,32.47,1.53,9.6.48c10.31.62,20.6,1.55,31,1.29,3.36,1.08,6.84.51,10.27.69l34.4,1.7,7.48.3,33.33,1.61,8.59.4,32.3,1.44c2.92.87,5.91.43,8.87.53l33,1.5c3,.83,6,.37,9.06.52l33.19,1.59,8.69.4,35.47,1.76,6.39.24,33.49,1.65,8.66.39c10.39.7,20.77,1.5,31.2,1.27,4.88,1.13,9.88.57,14.8,1C1134.65,234.71,1140.14,234.13,1145.34,236.07Z"/><path class="cls-3" d="M626.68,992Q588,968.72,549.32,945.43q-67.25-40.7-134.4-81.52-55.29-33.57-110.56-67.14-23.78-14.41-47.66-28.66c-2.95-1.75-4.89-4-5.44-7.28-2.85-16.88-5.57-33.78-8.43-50.66-2.38-14.1-5-28.16-7.33-42.26-2.94-17.53-5.71-35.09-8.63-52.63-2.31-13.93-4.75-27.84-7.08-41.77-3-18-5.92-36.07-9-54.08-3-17.85-6.23-35.66-9.24-53.5-2.35-13.93-4.45-27.9-6.76-41.83-2.15-13-4.44-25.87-6.67-38.8q-4.39-25.55-8.78-51.08c-.54-3.16-.5-5.54,3.9-3.61,35.57,15.66,71.13,31.34,106.79,46.77,3.64,1.58,4.56,3.92,4.79,7.23,1.31,18.28,4.94,36.25,7.37,54.37,2.24,16.65,4.65,33.26,7,49.88,2.18,15.14,4.43,30.26,6.64,45.39q4.62,31.59,9.23,63.18,4.71,32.33,9.42,64.67c2.28,15.81,4.47,31.62,6.69,47.43.76,5.43,1.64,10.85,2.2,16.3.41,4.08,2.64,6.28,6.12,8.16q70.08,37.83,140.05,75.88,15.45,8.39,30.83,16.9c1.34.75,2.78,1.84,4.11,1s.65-2.75.61-4.19c-1-31.27-3.15-62.49-4.62-93.75-1.82-38.57-4-77.12-6-115.69-2-38.21-4.33-76.41-5.9-114.66-.31-7.64-1.15-15.27-1.77-22.9-.28-3.36-.08-4.94,4.19-3,22.36,10,44.88,19.54,67.31,29.33,15.9,6.94,31.73,14,47.59,21,2,.87,3.88,1.83,5.07,3.76-.31,5.14-.85,10.27-.91,15.41-.37,34.79,0,69.57-.93,104.36-1.06,40.94.23,81.9-.94,122.86-1,36.1-.85,72.24-1.08,108.36C626.93,916.41,626.84,954.19,626.68,992Z"/><path class="cls-4" d="M626.68,992c.16-37.79.25-75.57.5-113.36.23-36.12,0-72.26,1.08-108.36,1.17-41-.12-81.92.94-122.86.89-34.79.56-69.57.93-104.36.06-5.14.6-10.27.91-15.41,33.77-16.29,68.48-30.42,102.82-45.41q155.7-67.94,311.57-135.52c8.4-3.65,16.84-7.21,25.15-11.06,3.91-1.82,4.61-.59,4.11,3.14-3.44,25.39-7.45,50.74-9.88,76.23-1,10.8-5.61,15.68-15.14,20q-142.1,64.74-283.74,130.46c-18.8,8.69-18.32,9-19.08,29.85-1.37,37.61-3.2,75.2-4.81,112.8q-1.62,38.19-3.15,76.38-.78,18.47-1.59,36.93c0,1.26-.84,2.86.55,3.65s2.5-.44,3.65-1q65-32.42,130.07-64.83c48.78-24.22,97-49.53,145.23-74.79,1.7-.9,3.29-2.32,6.17-2.15-1.38,8.4-2.7,16.7-4.09,25-3,17.57-6,35.13-8.86,52.72a13.5,13.5,0,0,1-6.85,10.24Q821,880.4,639,990.71C635.28,993,631.32,996.92,626.68,992Z"/><path class="cls-5" d="M736.91,192l10.53.43c.38,2.75,2.54,1.48,3.86,1.5,11.86.11,23.73.08,35.59.09l8.39.28c.42,2.72,2.6,1.55,4,1.57,12.24.13,24.48.12,36.72.15,3.77.15,7.56-.38,11.29.54l-3.18.95c.06.16.12.32.19.48h40.64l10.73.47c0,2.75,2.22,1.42,3.28,1.43,11.68.13,23.37.08,35.06.09l11.38.51c-3.17,1.79-.7,1.44.56,1.44q19,.06,38,.07c3.82.14,7.66-.33,11.43.55-3.24,2-.25,1.38.62,1.38,12.57.05,25.15.05,37.73.07l10.77.49a2.09,2.09,0,0,0-.38.34c-.09.12-.25.33-.2.42.65,1.49,2,.7,3,.7,12,.06,23.91,0,35.87,0l10.95.52c.47,2.55,2.52,1.39,3.81,1.4,11.4.11,22.79.08,34.18.09,4.11.21,8.26-.34,12.32.63A27.46,27.46,0,0,0,1151,210c10.22-.08,20.43,0,30.65,0a77,77,0,0,1,19.09,1.62c0,23,.73,46-.28,68.92-2,45.91-1.23,91.83-1.83,137.74-.09,6.45-.17,12.91-.1,19.36a4.13,4.13,0,0,1-2.63,3.86c-14.84,7.47-29.67,15-44.7,22.1a92.72,92.72,0,0,1-10.1,3.87,138.19,138.19,0,0,1,.78-23.68c.17-1.31.81-2.59.78-3.88-.3-16.17,1.75-32.23,2.89-48.29.93-13.21.25-26.61,3-39.69a5.82,5.82,0,0,0,.16-1.49c-.52-16.16,2-32.14,2.73-48.24.51-11.93.73-24,2.19-35.8,1-8.13.95-16.22,1.53-24.31.47-6.69.25-6.76-6.38-6.37-1.16.07-2.32.2-3.48.3-5.19-1.94-10.68-1.36-16-1.78-4.92-.39-9.92.17-14.79-.95-.5-2.39-2.41-1.18-3.58-1.2-9.21-.12-18.42-.07-27.63-.08l-8.65-.39c-.43-2.71-2.59-1.49-3.92-1.51-9.86-.15-19.72-.12-29.58-.14l-6.38-.24c-.45-2.68-2.6-1.6-4-1.61-10.49-.13-21-.12-31.48-.15l-8.69-.4c.42-.27,1.17-.53,1.19-.82.07-1.44-1.11-.66-1.63-.66-10.92-.08-21.84-.09-32.75-.11-3-.15-6.08.31-9-.52-.53-2.5-2.54-1.36-3.85-1.37-9.72-.13-19.44-.11-29.17-.13-3-.1-6,.34-8.86-.52-.52-2.68-2.64-1.33-4-1.35-9.45-.14-18.9-.09-28.36-.1l-8.58-.4c1.35-2.92-1.29-1.48-1.89-1.48-10.48-.12-21-.11-31.45-.13l-7.48-.3c2.51-1.8.65-1.57-.72-1.57L790.35,218c-3.43-.18-6.91.39-10.26-.69-1.28-1.3-2.91-1.34-4.6-1.33-8.79,0-17.57,0-26.36,0l-9.59-.48c.2-.26.54-.49.57-.76.07-.63-.42-.72-.92-.72L707.06,214l-8.46-.39c-.43-2.73-2.59-1.48-3.92-1.5-9.77-.14-19.54-.1-29.31-.12-4-.18-8.09.43-12-.87l4.42-.49,0-.88H636.91c.22-6,.55-11.93.61-17.89,0-3.22,1.33-4.35,4.49-3.9,2.61.37,5.27.4,7.9.58,1.32,1.67,3.19,1.42,5,1.42l32.82,0c3.94.2,7.92-.42,11.81.68.41,2.49,2.39,1.21,3.53,1.22C714.35,192.05,725.63,192,736.91,192Z"/><path class="cls-6" d="M836,196c-12.24,0-24.48,0-36.72-.15-1.35,0-3.53,1.15-4-1.57Z"/><path class="cls-6" d="M786.89,194c-11.86,0-23.73,0-35.59-.09-1.32,0-3.48,1.25-3.86-1.5Z"/><path class="cls-6" d="M983.86,202q-19,0-38-.07c-1.26,0-3.73.35-.56-1.44Z"/><path class="cls-6" d="M1033.64,204c-12.58,0-25.16,0-37.73-.07-.87,0-3.86.61-.62-1.38Z"/><path class="cls-6" d="M934,200c-11.69,0-23.38,0-35.06-.09-1.06,0-3.23,1.32-3.28-1.43Z"/><path class="cls-6" d="M1082.65,206c-12,0-23.92,0-35.87,0-1,0-2.3.79-3-.7,0-.09.11-.3.2-.42a2.09,2.09,0,0,1,.38-.34Z"/><path class="cls-6" d="M1131.59,208c-11.39,0-22.78,0-34.18-.09-1.29,0-3.34,1.15-3.81-1.4Z"/><path class="cls-6" d="M736.91,192c-11.28,0-22.56,0-33.84-.1-1.14,0-3.12,1.27-3.53-1.22C712,190.47,724.46,191.3,736.91,192Z"/><path class="cls-6" d="M687.73,190l-32.82,0c-1.81,0-3.68.25-5-1.42Z"/><path class="cls-6" d="M790.35,218l33.68.13c1.37,0,3.23-.23.72,1.57Z"/><path class="cls-6" d="M884.89,198H844.25c-.07-.16-.13-.32-.19-.48l3.18-.95Z"/><path class="cls-6" d="M999.27,228c10.49,0,21,0,31.48.15,1.4,0,3.55-1.07,4,1.61Z"/><path class="cls-6" d="M1181.69,210.05c-10.22,0-20.43-.12-30.65,0a27.46,27.46,0,0,1-7.13-1.38C1156.53,208.58,1169.11,209.26,1181.69,210.05Z"/><path class="cls-6" d="M957.39,226c10.91,0,21.83,0,32.75.11.52,0,1.7-.78,1.63.66,0,.29-.77.55-1.19.82Z"/><path class="cls-6" d="M832.23,220c10.49,0,21,0,31.45.13.6,0,3.24-1.44,1.89,1.48Z"/><path class="cls-6" d="M1041.13,230c9.86,0,19.72,0,29.58.14,1.33,0,3.49-1.2,3.92,1.51Z"/><path class="cls-6" d="M665.37,212c9.77,0,19.54,0,29.31.12,1.33,0,3.49-1.23,3.92,1.5Z"/><path class="cls-6" d="M707.06,214l32.13.05c.5,0,1,.09.92.72,0,.27-.37.5-.57.76Z"/><path class="cls-6" d="M915.32,224c9.73,0,19.45,0,29.17.13,1.31,0,3.32-1.13,3.85,1.37Z"/><path class="cls-6" d="M874.15,222c9.46,0,18.91,0,28.36.1,1.31,0,3.43-1.33,4,1.35Z"/><path class="cls-6" d="M1083.28,232.06c9.21,0,18.42,0,27.63.08,1.17,0,3.08-1.19,3.58,1.2C1104.05,233.56,1093.67,232.76,1083.28,232.06Z"/><path class="cls-6" d="M749.13,216.05c8.79,0,17.57,0,26.36,0,1.69,0,3.32,0,4.6,1.33C769.73,217.6,759.44,216.67,749.13,216.05Z"/><path class="cls-6" d="M636.91,209.79h20.81l0,.88-4.42.49C647.85,210.91,642.2,212.5,636.91,209.79Z"/></svg>